<svg width="128" height="128" viewBox="0 0 128 128" xmlns="http://www.w3.org/2000/svg">
	<path id="icon" fill-rule="evenodd" clip-rule="evenodd"
		d="M11 7H64H117C123 7 126 10 126 16V113C126 119 122 123 116 123C113 123 110.5 121 108 119C105.5 117 103 115 100 115C97 115 94 117 91 119C88 121 85 123 82 123C79 123 76 121 73 119C70 117 67 115 64 115C61 115 58 117 55 119C52 121 49 123 46 123C43 123 40 121 37 119C34 117 31 115 28 115C25 115 22.5 117 20 119C17.5 121 15 123 12 123C6 123 2 119 2 113V16C2 10 5 7 11 7ZM20 58C20 67.9411 28.0589 76 38 76C47.9411 76 56 67.9411 56 58C56 48.0589 47.9411 40 38 40C28.0589 40 20 48.0589 20 58ZM108 58C108 67.9411 99.9411 76 90 76C80.0589 76 72 67.9411 72 58C72 48.0589 80.0589 40 90 40C99.9411 40 108 48.0589 108 58Z"
		fill="#FFB87D" />
</svg>